<?xml version="1.0" encoding="utf-8"?>
<!-- Generator: Adobe Illustrator 24.1.2, SVG Export Plug-In . SVG Version: 6.00 Build 0)  -->
<svg version="1.1" id="Layer_1" xmlns="http://www.w3.org/2000/svg" xmlns:xlink="http://www.w3.org/1999/xlink" x="0px" y="0px"
	 viewBox="0 0 204.3 219.4" style="enable-background:new 0 0 204.3 219.4;" xml:space="preserve">
<style type="text/css">
	.st0{fill:#1971C2;}
	.st1{fill:#666666;}
</style>
<path id="XMLID_49_" class="st0" d="M95,0L73,50.4h16.3c3.1,0,5.7-2.5,5.7-5.7V0z"/>
<path id="XMLID_116_" class="st0" d="M109,0l22,50.4h-16.3c-3.1,0-5.7-2.5-5.7-5.7V0z"/>
<path id="XMLID_114_" class="st0" d="M29.6,115.3L0,182.4h29.3c3.1,0,5.7-2.5,5.7-5.7v-60.3C35,113.4,30.8,112.5,29.6,115.3z"/>
<path id="XMLID_113_" class="st0" d="M174.4,115.2l29.9,67.2h-29.6c-3.1,0-5.7-2.5-5.7-5.7v-60.4C169,113.3,173.2,112.4,174.4,115.2
	z"/>
<path id="XMLID_111_" class="st0" d="M108,66.9v87.9l-6,10.3l-6-10.3V66.9c0-4.7-3.8-8.5-8.5-8.5h-40c-4.7,0-8.5,3.8-8.5,8.5v115.5
	h28v-80.3l8,13.8v58c0,4.7,3.8,8.5,8.5,8.5H102h18.5c4.7,0,8.5-3.8,8.5-8.5v-58l8-13.8v80.3h28V69.7c0-6.3-5.1-11.3-11.3-11.3h-37.2
	C111.8,58.4,108,62.2,108,66.9z"/>
<polygon id="XMLID_98_" class="st1" points="64.3,192.7 41.7,192.7 39.1,182.4 66.9,182.4 "/>
<polygon id="XMLID_94_" class="st1" points="162.4,192.7 139.7,192.7 137.1,182.4 165,182.4 "/>
</svg>
