<?xml version="1.0" encoding="utf-8"?>
<!-- Generator: Adobe Illustrator 24.1.2, SVG Export Plug-In . SVG Version: 6.00 Build 0)  -->
<svg version="1.1" id="Layer_1" xmlns="http://www.w3.org/2000/svg" xmlns:xlink="http://www.w3.org/1999/xlink" x="0px" y="0px"
	 viewBox="0 0 204.3 219.4" style="enable-background:new 0 0 204.3 219.4;" xml:space="preserve">
<style type="text/css">
	.st0{fill:#1971C2;}
	.st1{fill:#666666;}
	.st2{fill:url(#XMLID_2_);}
	.st3{fill:url(#XMLID_3_);}
</style>
<path id="XMLID_49_" class="st0" d="M95,0L73,50.4h16.3c3.1,0,5.7-2.5,5.7-5.7V0z"/>
<path id="XMLID_116_" class="st0" d="M109,0l22,50.4h-16.3c-3.1,0-5.7-2.5-5.7-5.7V0z"/>
<path id="XMLID_114_" class="st0" d="M29.6,115.3L0,182.4h29.3c3.1,0,5.7-2.5,5.7-5.7v-60.3C35,113.4,30.8,112.5,29.6,115.3z"/>
<path id="XMLID_113_" class="st0" d="M174.4,115.2l29.9,67.2h-29.6c-3.1,0-5.7-2.5-5.7-5.7v-60.4C169,113.3,173.2,112.4,174.4,115.2
	z"/>
<path id="XMLID_111_" class="st0" d="M108,66.9v87.9l-6,10.3l-6-10.3V66.9c0-4.7-3.8-8.5-8.5-8.5h-40c-4.7,0-8.5,3.8-8.5,8.5v115.5
	h28v-80.3l8,13.8v58c0,4.7,3.8,8.5,8.5,8.5H102h18.5c4.7,0,8.5-3.8,8.5-8.5v-58l8-13.8v80.3h28V66.9c0-4.7-3.8-8.5-8.5-8.5h-40
	C111.8,58.4,108,62.2,108,66.9z"/>
<path id="XMLID_98_" class="st1" d="M62.1,192.7H43.9c-1.3,0-2.4-0.9-2.7-2.1l-2.1-8.2h27.8l-2.1,8.2
	C64.5,191.8,63.4,192.7,62.1,192.7z"/>
<path id="XMLID_94_" class="st1" d="M160.2,192.7h-18.3c-1.3,0-2.4-0.9-2.7-2.1l-2.1-8.2H165l-2.1,8.2
	C162.6,191.8,161.5,192.7,160.2,192.7z"/>
<radialGradient id="XMLID_2_" cx="53.15" cy="829.4" r="16.6102" gradientTransform="matrix(1 0 0 1 0 -622)" gradientUnits="userSpaceOnUse">
	<stop  offset="0" style="stop-color:#FFFF00"/>
	<stop  offset="1" style="stop-color:#F15A24"/>
</radialGradient>
<polygon id="XMLID_14_" class="st2" points="44.3,195.4 33,202.7 38.7,205.4 37,215.1 46.7,211.7 53,219.4 56,212.4 64.9,219.4 
	66.7,210.1 73.3,205.1 62,195.4 "/>
<radialGradient id="XMLID_3_" cx="151.15" cy="829.4" r="16.6102" gradientTransform="matrix(1 0 0 1 0 -622)" gradientUnits="userSpaceOnUse">
	<stop  offset="0" style="stop-color:#FFFF00"/>
	<stop  offset="1" style="stop-color:#F15A24"/>
</radialGradient>
<polygon id="XMLID_45_" class="st3" points="142.3,195.4 131,202.7 136.7,205.4 135,215.1 144.7,211.7 151,219.4 154,212.4 
	162.9,219.4 164.7,210.1 171.3,205.1 160,195.4 "/>
</svg>
